<svg width="386" height="62" viewBox="0 0 386 62" fill="none" xmlns="http://www.w3.org/2000/svg">
<g filter="url(#filter0_d_5_10)">
<rect x="8" y="4" width="370" height="46" rx="8" fill="#1E1FCD" shape-rendering="crispEdges"/>
<path d="M107.26 34V20H110.16V34H107.26ZM112.529 34V23.58H115.269V24.74C115.603 24.2867 116.003 23.94 116.469 23.7C116.936 23.46 117.463 23.34 118.049 23.34C118.556 23.3533 118.936 23.4333 119.189 23.58V25.98C118.989 25.8867 118.769 25.82 118.529 25.78C118.289 25.7267 118.043 25.7 117.789 25.7C117.256 25.7 116.769 25.8333 116.329 26.1C115.889 26.3667 115.536 26.7467 115.269 27.24V34H112.529ZM124.717 38.08V23.58H127.417V24.44C128.27 23.7733 129.257 23.44 130.377 23.44C131.363 23.44 132.257 23.68 133.057 24.16C133.857 24.64 134.49 25.2867 134.957 26.1C135.437 26.9 135.677 27.8 135.677 28.8C135.677 29.8 135.437 30.7067 134.957 31.52C134.477 32.32 133.83 32.96 133.017 33.44C132.203 33.9067 131.297 34.14 130.297 34.14C129.777 34.14 129.277 34.0733 128.797 33.94C128.317 33.7933 127.87 33.5867 127.457 33.32V38.08H124.717ZM129.937 31.82C130.51 31.82 131.023 31.6867 131.477 31.42C131.943 31.1533 132.31 30.7933 132.577 30.34C132.843 29.8867 132.977 29.3733 132.977 28.8C132.977 28.2267 132.843 27.7133 132.577 27.26C132.31 26.7933 131.943 26.4333 131.477 26.18C131.023 25.9133 130.51 25.78 129.937 25.78C129.43 25.78 128.963 25.8667 128.537 26.04C128.123 26.2 127.763 26.4467 127.457 26.78V30.84C127.75 31.1467 128.11 31.3867 128.537 31.56C128.977 31.7333 129.443 31.82 129.937 31.82ZM140.752 34.18C140.005 34.18 139.345 34.0467 138.772 33.78C138.198 33.5 137.752 33.12 137.432 32.64C137.112 32.16 136.952 31.6067 136.952 30.98C136.952 29.98 137.325 29.2067 138.072 28.66C138.832 28.1 139.872 27.82 141.192 27.82C142.098 27.82 142.952 27.96 143.752 28.24V27.48C143.752 26.88 143.565 26.4267 143.192 26.12C142.818 25.8133 142.272 25.66 141.552 25.66C141.112 25.66 140.638 25.7333 140.132 25.88C139.625 26.0133 139.038 26.2267 138.372 26.52L137.372 24.5C138.198 24.1267 138.985 23.8467 139.732 23.66C140.492 23.4733 141.252 23.38 142.012 23.38C143.412 23.38 144.498 23.72 145.272 24.4C146.058 25.0667 146.452 26.0133 146.452 27.24V34H143.752V33.26C143.325 33.58 142.865 33.8133 142.372 33.96C141.878 34.1067 141.338 34.18 140.752 34.18ZM139.552 30.92C139.552 31.32 139.725 31.64 140.072 31.88C140.418 32.1067 140.878 32.22 141.452 32.22C141.905 32.22 142.325 32.1667 142.712 32.06C143.098 31.94 143.445 31.7667 143.752 31.54V30.02C143.418 29.8867 143.072 29.7867 142.712 29.72C142.352 29.6533 141.965 29.62 141.552 29.62C140.925 29.62 140.432 29.74 140.072 29.98C139.725 30.2067 139.552 30.52 139.552 30.92ZM148.525 34V23.58H151.265V24.74C151.599 24.2867 151.999 23.94 152.465 23.7C152.932 23.46 153.459 23.34 154.045 23.34C154.552 23.3533 154.932 23.4333 155.185 23.58V25.98C154.985 25.8867 154.765 25.82 154.525 25.78C154.285 25.7267 154.039 25.7 153.785 25.7C153.252 25.7 152.765 25.8333 152.325 26.1C151.885 26.3667 151.532 26.7467 151.265 27.24V34H148.525ZM159.716 34.18C158.97 34.18 158.31 34.0467 157.736 33.78C157.163 33.5 156.716 33.12 156.396 32.64C156.076 32.16 155.916 31.6067 155.916 30.98C155.916 29.98 156.29 29.2067 157.036 28.66C157.796 28.1 158.836 27.82 160.156 27.82C161.063 27.82 161.916 27.96 162.716 28.24V27.48C162.716 26.88 162.53 26.4267 162.156 26.12C161.783 25.8133 161.236 25.66 160.516 25.66C160.076 25.66 159.603 25.7333 159.096 25.88C158.59 26.0133 158.003 26.2267 157.336 26.52L156.336 24.5C157.163 24.1267 157.95 23.8467 158.696 23.66C159.456 23.4733 160.216 23.38 160.976 23.38C162.376 23.38 163.463 23.72 164.236 24.4C165.023 25.0667 165.416 26.0133 165.416 27.24V34H162.716V33.26C162.29 33.58 161.83 33.8133 161.336 33.96C160.843 34.1067 160.303 34.18 159.716 34.18ZM158.516 30.92C158.516 31.32 158.69 31.64 159.036 31.88C159.383 32.1067 159.843 32.22 160.416 32.22C160.87 32.22 161.29 32.1667 161.676 32.06C162.063 31.94 162.41 31.7667 162.716 31.54V30.02C162.383 29.8867 162.036 29.7867 161.676 29.72C161.316 29.6533 160.93 29.62 160.516 29.62C159.89 29.62 159.396 29.74 159.036 29.98C158.69 30.2067 158.516 30.52 158.516 30.92ZM171.514 38.08V23.58H174.214V24.44C175.067 23.7733 176.054 23.44 177.174 23.44C178.16 23.44 179.054 23.68 179.854 24.16C180.654 24.64 181.287 25.2867 181.754 26.1C182.234 26.9 182.474 27.8 182.474 28.8C182.474 29.8 182.234 30.7067 181.754 31.52C181.274 32.32 180.627 32.96 179.814 33.44C179 33.9067 178.094 34.14 177.094 34.14C176.574 34.14 176.074 34.0733 175.594 33.94C175.114 33.7933 174.667 33.5867 174.254 33.32V38.08H171.514ZM176.734 31.82C177.307 31.82 177.82 31.6867 178.274 31.42C178.74 31.1533 179.107 30.7933 179.374 30.34C179.64 29.8867 179.774 29.3733 179.774 28.8C179.774 28.2267 179.64 27.7133 179.374 27.26C179.107 26.7933 178.74 26.4333 178.274 26.18C177.82 25.9133 177.307 25.78 176.734 25.78C176.227 25.78 175.76 25.8667 175.334 26.04C174.92 26.2 174.56 26.4467 174.254 26.78V30.84C174.547 31.1467 174.907 31.3867 175.334 31.56C175.774 31.7333 176.24 31.82 176.734 31.82ZM187.548 34.18C186.802 34.18 186.142 34.0467 185.568 33.78C184.995 33.5 184.548 33.12 184.228 32.64C183.908 32.16 183.748 31.6067 183.748 30.98C183.748 29.98 184.122 29.2067 184.868 28.66C185.628 28.1 186.668 27.82 187.988 27.82C188.895 27.82 189.748 27.96 190.548 28.24V27.48C190.548 26.88 190.362 26.4267 189.988 26.12C189.615 25.8133 189.068 25.66 188.348 25.66C187.908 25.66 187.435 25.7333 186.928 25.88C186.422 26.0133 185.835 26.2267 185.168 26.52L184.168 24.5C184.995 24.1267 185.782 23.8467 186.528 23.66C187.288 23.4733 188.048 23.38 188.808 23.38C190.208 23.38 191.295 23.72 192.068 24.4C192.855 25.0667 193.248 26.0133 193.248 27.24V34H190.548V33.26C190.122 33.58 189.662 33.8133 189.168 33.96C188.675 34.1067 188.135 34.18 187.548 34.18ZM186.348 30.92C186.348 31.32 186.522 31.64 186.868 31.88C187.215 32.1067 187.675 32.22 188.248 32.22C188.702 32.22 189.122 32.1667 189.508 32.06C189.895 31.94 190.242 31.7667 190.548 31.54V30.02C190.215 29.8867 189.868 29.7867 189.508 29.72C189.148 29.6533 188.762 29.62 188.348 29.62C187.722 29.62 187.228 29.74 186.868 29.98C186.522 30.2067 186.348 30.52 186.348 30.92ZM200.562 38.28C199.762 38.28 198.989 38.1933 198.242 38.02C197.496 37.86 196.822 37.6267 196.222 37.32L197.182 35.2C197.756 35.48 198.316 35.6867 198.862 35.82C199.409 35.9533 199.956 36.02 200.502 36.02C201.316 36.02 201.929 35.8467 202.342 35.5C202.769 35.1533 202.982 34.6333 202.982 33.94V33.12C202.129 33.7467 201.176 34.06 200.122 34.06C199.136 34.06 198.242 33.8267 197.442 33.36C196.656 32.88 196.022 32.2333 195.542 31.42C195.076 30.6067 194.842 29.7067 194.842 28.72C194.842 27.7333 195.076 26.84 195.542 26.04C196.022 25.24 196.669 24.6067 197.482 24.14C198.296 23.66 199.202 23.42 200.202 23.42C200.709 23.42 201.202 23.4933 201.682 23.64C202.162 23.7867 202.609 23.9933 203.022 24.26V23.58H205.722V33.98C205.722 35.3533 205.276 36.4133 204.382 37.16C203.502 37.9067 202.229 38.28 200.562 38.28ZM200.542 31.74C201.049 31.74 201.509 31.66 201.922 31.5C202.336 31.3267 202.689 31.0867 202.982 30.78V26.7C202.689 26.4067 202.329 26.18 201.902 26.02C201.489 25.8467 201.042 25.76 200.562 25.76C199.989 25.76 199.476 25.8933 199.022 26.16C198.569 26.4133 198.209 26.7667 197.942 27.22C197.676 27.66 197.542 28.16 197.542 28.72C197.542 29.2933 197.669 29.8067 197.922 30.26C198.189 30.7133 198.549 31.0733 199.002 31.34C199.469 31.6067 199.982 31.74 200.542 31.74ZM211.181 34.18C210.435 34.18 209.775 34.0467 209.201 33.78C208.628 33.5 208.181 33.12 207.861 32.64C207.541 32.16 207.381 31.6067 207.381 30.98C207.381 29.98 207.755 29.2067 208.501 28.66C209.261 28.1 210.301 27.82 211.621 27.82C212.528 27.82 213.381 27.96 214.181 28.24V27.48C214.181 26.88 213.995 26.4267 213.621 26.12C213.248 25.8133 212.701 25.66 211.981 25.66C211.541 25.66 211.068 25.7333 210.561 25.88C210.055 26.0133 209.468 26.2267 208.801 26.52L207.801 24.5C208.628 24.1267 209.415 23.8467 210.161 23.66C210.921 23.4733 211.681 23.38 212.441 23.38C213.841 23.38 214.928 23.72 215.701 24.4C216.488 25.0667 216.881 26.0133 216.881 27.24V34H214.181V33.26C213.755 33.58 213.295 33.8133 212.801 33.96C212.308 34.1067 211.768 34.18 211.181 34.18ZM209.981 30.92C209.981 31.32 210.155 31.64 210.501 31.88C210.848 32.1067 211.308 32.22 211.881 32.22C212.335 32.22 212.755 32.1667 213.141 32.06C213.528 31.94 213.875 31.7667 214.181 31.54V30.02C213.848 29.8867 213.501 29.7867 213.141 29.72C212.781 29.6533 212.395 29.62 211.981 29.62C211.355 29.62 210.861 29.74 210.501 29.98C210.155 30.2067 209.981 30.52 209.981 30.92ZM218.955 34V23.58H221.695V24.38C222.442 23.7133 223.348 23.38 224.415 23.38C225.095 23.38 225.702 23.52 226.235 23.8C226.768 24.0667 227.208 24.4467 227.555 24.94C227.982 24.4333 228.482 24.0467 229.055 23.78C229.642 23.5133 230.288 23.38 230.995 23.38C231.782 23.38 232.468 23.56 233.055 23.92C233.655 24.2667 234.122 24.7533 234.455 25.38C234.802 25.9933 234.975 26.7133 234.975 27.54V34H232.255V27.94C232.255 27.26 232.075 26.7267 231.715 26.34C231.355 25.94 230.875 25.74 230.275 25.74C229.862 25.74 229.482 25.8267 229.135 26C228.802 26.1733 228.515 26.4333 228.275 26.78C228.288 26.9 228.302 27.02 228.315 27.14C228.328 27.26 228.335 27.3933 228.335 27.54V34H225.595V27.94C225.595 27.26 225.415 26.7267 225.055 26.34C224.708 25.94 224.235 25.74 223.635 25.74C223.222 25.74 222.848 25.82 222.515 25.98C222.195 26.14 221.922 26.38 221.695 26.7V34H218.955ZM242.16 34.2C241.12 34.2 240.174 33.96 239.32 33.48C238.48 33 237.814 32.3533 237.32 31.54C236.827 30.7267 236.58 29.8133 236.58 28.8C236.58 27.7867 236.814 26.8733 237.28 26.06C237.76 25.2467 238.407 24.6 239.22 24.12C240.034 23.64 240.94 23.4 241.94 23.4C242.94 23.4 243.827 23.6467 244.6 24.14C245.374 24.6333 245.98 25.3 246.42 26.14C246.874 26.98 247.1 27.9333 247.1 29V29.72H239.38C239.5 30.1333 239.694 30.5067 239.96 30.84C240.24 31.1733 240.58 31.4333 240.98 31.62C241.394 31.8067 241.834 31.9 242.3 31.9C242.767 31.9 243.194 31.8267 243.58 31.68C243.98 31.5333 244.32 31.3267 244.6 31.06L246.4 32.7C245.76 33.22 245.1 33.6 244.42 33.84C243.754 34.08 243 34.2 242.16 34.2ZM239.34 27.76H244.4C244.307 27.3467 244.134 26.9867 243.88 26.68C243.64 26.36 243.347 26.1133 243 25.94C242.667 25.7533 242.294 25.66 241.88 25.66C241.454 25.66 241.067 25.7467 240.72 25.92C240.374 26.0933 240.08 26.34 239.84 26.66C239.614 26.9667 239.447 27.3333 239.34 27.76ZM248.779 34V23.58H251.519V24.44C252.306 23.7333 253.279 23.38 254.439 23.38C255.253 23.38 255.966 23.56 256.579 23.92C257.206 24.2667 257.693 24.7533 258.039 25.38C258.386 25.9933 258.559 26.7133 258.559 27.54V34H255.819V27.94C255.819 27.26 255.626 26.7267 255.239 26.34C254.853 25.94 254.326 25.74 253.659 25.74C253.193 25.74 252.779 25.8333 252.419 26.02C252.059 26.1933 251.759 26.4467 251.519 26.78V34H248.779ZM265.282 34.16C264.122 34.16 263.242 33.9 262.642 33.38C262.055 32.8467 261.762 32.0733 261.762 31.06V25.86H259.622V23.58H261.762V20.92L264.502 20.3V23.58H267.482V25.86H264.502V30.5C264.502 30.98 264.608 31.3267 264.822 31.54C265.035 31.74 265.408 31.84 265.942 31.84C266.208 31.84 266.448 31.8267 266.662 31.8C266.888 31.76 267.135 31.6933 267.402 31.6V33.86C267.122 33.9533 266.768 34.0267 266.342 34.08C265.928 34.1333 265.575 34.16 265.282 34.16ZM273.781 34.2C272.741 34.2 271.801 33.96 270.961 33.48C270.121 33 269.454 32.3533 268.961 31.54C268.468 30.7267 268.221 29.8133 268.221 28.8C268.221 27.7867 268.461 26.8733 268.941 26.06C269.434 25.2333 270.101 24.58 270.941 24.1C271.794 23.62 272.741 23.38 273.781 23.38C274.821 23.38 275.761 23.62 276.601 24.1C277.454 24.58 278.121 25.2333 278.601 26.06C279.094 26.8733 279.341 27.7867 279.341 28.8C279.341 29.8133 279.094 30.7267 278.601 31.54C278.121 32.3533 277.461 33 276.621 33.48C275.781 33.96 274.834 34.2 273.781 34.2ZM273.781 31.82C274.328 31.82 274.814 31.6867 275.241 31.42C275.681 31.1533 276.028 30.7933 276.281 30.34C276.548 29.8733 276.681 29.36 276.681 28.8C276.681 28.2267 276.548 27.7133 276.281 27.26C276.028 26.8067 275.681 26.4467 275.241 26.18C274.814 25.9 274.328 25.76 273.781 25.76C273.248 25.76 272.761 25.9 272.321 26.18C271.881 26.4467 271.534 26.8067 271.281 27.26C271.028 27.7133 270.901 28.2267 270.901 28.8C270.901 29.36 271.028 29.8733 271.281 30.34C271.534 30.7933 271.881 31.1533 272.321 31.42C272.761 31.6867 273.248 31.82 273.781 31.82Z" fill="white" fill-opacity="0.99"/>
</g>
<defs>
<filter id="filter0_d_5_10" x="0" y="0" width="386" height="62" filterUnits="userSpaceOnUse" color-interpolation-filters="sRGB">
<feFlood flood-opacity="0" result="BackgroundImageFix"/>
<feColorMatrix in="SourceAlpha" type="matrix" values="0 0 0 0 0 0 0 0 0 0 0 0 0 0 0 0 0 0 127 0" result="hardAlpha"/>
<feOffset dy="4"/>
<feGaussianBlur stdDeviation="4"/>
<feComposite in2="hardAlpha" operator="out"/>
<feColorMatrix type="matrix" values="0 0 0 0 0 0 0 0 0 0 0 0 0 0 0 0 0 0 0.25 0"/>
<feBlend mode="normal" in2="BackgroundImageFix" result="effect1_dropShadow_5_10"/>
<feBlend mode="normal" in="SourceGraphic" in2="effect1_dropShadow_5_10" result="shape"/>
</filter>
</defs>
</svg>
