<svg width="36" height="37" viewBox="0 0 36 37" fill="none" xmlns="http://www.w3.org/2000/svg">
<circle cx="18" cy="18.5" r="18" fill="#DFE6FB"/>
<path d="M25.574 9.69822C25.4862 9.62208 25.3831 9.5657 25.2717 9.53291C25.1602 9.50013 25.043 9.49171 24.928 9.50822L13.581 11.1302C13.3877 11.1577 13.2108 11.2541 13.0829 11.4016C12.955 11.5492 12.8847 11.738 12.885 11.9332V21.4342C12.3897 21.1454 11.8264 20.9935 11.253 20.9942C10.3906 20.9953 9.56378 21.3383 8.95395 21.9482C8.34412 22.558 8.00106 23.3848 8 24.2472C8.00106 25.1096 8.34412 25.9364 8.95395 26.5463C9.56378 27.1561 10.3906 27.4992 11.253 27.5002C12.1154 27.4992 12.9422 27.1561 13.552 26.5463C14.1619 25.9364 14.5049 25.1096 14.506 24.2472V15.8772L24.232 14.4872V19.8142C23.7371 19.5252 23.1742 19.373 22.601 19.3732C21.7384 19.374 20.9113 19.717 20.3013 20.3268C19.6913 20.9367 19.3481 21.7636 19.347 22.6262C19.3481 23.4888 19.6913 24.3158 20.3013 24.9256C20.9113 25.5355 21.7384 25.8784 22.601 25.8792C23.4634 25.8782 24.2902 25.5351 24.9 24.9253C25.5099 24.3154 25.8529 23.4886 25.854 22.6262V10.3102C25.8541 10.1939 25.8291 10.079 25.7808 9.97322C25.7325 9.86744 25.6619 9.77331 25.574 9.69722V9.69822Z" fill="#717FA6"/>
</svg>
