<svg width="450" height="197" viewBox="0 0 450 197" fill="none" xmlns="http://www.w3.org/2000/svg">
<mask id="mask0_2_7" style="mask-type:alpha" maskUnits="userSpaceOnUse" x="0" y="0" width="450" height="197">
<path d="M0 0H450V197H0V0Z" fill="white"/>
</mask>
<g mask="url(#mask0_2_7)">
<path d="M0 0H450V197H0V0Z" fill="#382AE1"/>
<path d="M218.812 41.1909V53.1614H220.497V56.4056H226.8V126.236L239.558 132.234V120.691H242.604V133.716L245.588 135.097V236.201L31.9 238.383V173.698H38.913V111.502H41.461V102.95H44.506V111.502H58.656L58.655 111.515V111.69C58.645 113.545 58.567 128.736 58.561 139.919V142.622C58.564 147.993 58.589 151.908 58.655 151.975C58.721 152.042 59.439 152.068 60.402 152.071H60.902C63.054 152.064 65.973 151.975 65.973 151.975V184.604H71.759V68.4118H79.138V62.004H82.183V68.4127H105.294V74.1392H114.084V62.0058H117.129V74.1392H121.443V95.425H131.796V133.598H143.976V168.245H150.36V96.2336H158.4V85.2079H161.444V96.2327H183.561V56.4333H190.016V53.1614H215.766V41.1909H218.812ZM15.842 132.07V135.787H19.04L25.475 238.101H-8L-1.555 135.788H0.961999V132.071H15.842V132.07Z" fill="#1E1FCD"/>
<path d="M422.812 73.4273V85.3977H424.497V88.6419H430.8V158.472L443.558 164.471V152.928H446.604V165.952L449.588 167.334V268.438L235.9 270.619V205.934H242.913V143.738H245.461V135.187H248.506V143.738H262.656L262.655 143.751V143.926C262.645 145.782 262.567 160.972 262.561 172.156V174.858C262.564 180.229 262.589 184.144 262.655 184.211C262.721 184.278 263.439 184.304 264.402 184.308H264.902C267.054 184.301 269.973 184.211 269.973 184.211V216.841H275.759V100.648H283.138V94.2403H286.183V100.648H309.294V106.375H318.084V94.2412H321.129V106.375H325.443V127.66H335.796V165.834H347.976V200.481H354.36V128.469H362.4V117.444H365.444V128.469H387.561V88.6697H394.016V85.3977H419.766V73.4273H422.812ZM219.842 164.306V168.023H223.04L229.475 270.337H196L202.445 168.023H204.962V164.306H219.842Z" fill="#1E1FCD"/>
<path d="M224.743 24.9778C224.596 23.0821 215.118 28.5972 215.118 28.5972C215.118 28.5972 223.147 23.0821 222.458 21.704C221.77 20.325 212.724 26.3568 212.724 26.3568C212.724 26.3568 220.981 20.6698 219.706 19.4555C218.431 18.2404 209.613 24.6331 209.613 24.6331C209.613 24.6331 218.605 17.559 215.173 17.387C213.632 17.3136 201.53 24.6743 188.419 33.5124C192.089 37.6154 195.759 41.5787 199.723 45.4112C203.925 41.5213 207.237 38.4275 207.687 37.9109C209.035 36.3599 222.431 37.3942 222.486 35.4985C222.541 33.6028 213.66 32.7405 213.66 32.7405C213.66 32.7405 224.89 26.8735 224.743 24.9778Z" fill="white"/>
<path d="M199.667 45.7801C199.611 45.781 199.554 45.7712 199.502 45.7515C199.45 45.7317 199.404 45.7024 199.365 45.6655C195.841 42.252 192.245 38.4687 188.033 33.7416C187.998 33.7029 187.972 33.6583 187.956 33.6105C187.941 33.5627 187.936 33.5126 187.942 33.4631C187.96 33.363 188.019 33.2724 188.107 33.2088C197.805 26.6434 212.944 17.0181 215.109 17.0181C215.594 16.9769 216.051 17.2276 216.229 17.6333C216.522 18.372 215.495 19.734 214.146 21.105C216.66 19.6033 219.174 18.4455 219.963 19.2012C220.149 19.3803 220.236 19.623 220.201 19.8657C220.137 20.5381 219.284 21.507 218.146 22.5816C219.871 21.6709 221.486 20.9814 222.229 21.1542C222.348 21.1751 222.46 21.2208 222.556 21.2877C222.651 21.3546 222.728 21.4408 222.779 21.5393C223.229 22.4016 221.504 24.1576 219.495 25.807C221.651 24.7727 223.835 23.9355 224.67 24.3134C224.805 24.3724 224.92 24.463 225.003 24.5758C225.085 24.6885 225.132 24.819 225.138 24.9536C225.275 26.7266 217.981 30.8287 214.852 32.5023C217.715 32.856 222.862 33.7336 222.816 35.5066C222.816 36.7951 219.779 37.0082 214.871 37.2375C212.008 37.3772 208.448 37.55 207.934 38.1401C207.42 38.7311 204.906 41.0781 199.943 45.6736C199.868 45.7367 199.77 45.7746 199.667 45.781V45.7801ZM188.96 33.5778C192.915 38.0094 196.3 41.6118 199.677 44.8605C205.494 39.4788 207.017 37.9843 207.301 37.6807C207.998 36.8605 210.623 36.6957 214.852 36.4907C217.348 36.368 221.991 36.1468 222.009 35.4895C222.009 34.5296 217.642 33.5124 213.559 33.1103C213.472 33.1014 213.391 33.0679 213.326 33.0148C213.262 32.9617 213.218 32.8917 213.201 32.8148C213.182 32.7381 213.191 32.6581 213.225 32.5858C213.259 32.5136 213.318 32.4528 213.393 32.4119C218.834 29.5894 224.403 26.0452 224.33 25.0271C223.761 24.6742 219.65 26.4714 215.348 28.9742C215.257 29.0158 215.152 29.0265 215.053 29.0042C214.954 28.982 214.868 28.9283 214.809 28.8532C214.751 28.7781 214.725 28.6866 214.737 28.5958C214.748 28.5049 214.796 28.4208 214.871 28.359C219.009 25.5196 222.367 22.5081 222.055 21.9171C221.44 21.6458 217.256 23.837 212.962 26.7168C212.873 26.7718 212.764 26.7941 212.657 26.7791C212.55 26.7641 212.454 26.7129 212.388 26.6362C212.322 26.5594 212.291 26.463 212.303 26.3667C212.314 26.2704 212.366 26.1816 212.448 26.1186C215.082 24.2973 219.293 20.9895 219.403 19.8657V19.7761C218.889 19.2657 214.329 21.7533 209.852 24.9859C209.764 25.0448 209.655 25.0717 209.546 25.061C209.437 25.0504 209.336 25.003 209.265 24.9286C209.227 24.8949 209.196 24.8548 209.175 24.8104C209.154 24.766 209.143 24.7184 209.143 24.6702C209.143 24.6221 209.154 24.5744 209.175 24.53C209.196 24.4857 209.227 24.4455 209.265 24.4119C212.467 21.884 215.742 18.6675 215.449 17.9377C215.449 17.8634 215.238 17.8303 215.073 17.8222C213.816 17.7649 203.53 23.7797 188.96 33.5778Z" fill="#231F20"/>
<path d="M153.058 61.6753C150.36 69.2992 166.655 104.511 166.655 104.511L186.841 82.1991C186.391 81.5096 176.188 65.6395 176.188 65.6395C176.188 65.6395 191.245 53.1748 199.64 45.4112C195.695 41.5786 191.97 37.5822 188.336 33.5124C172.225 44.3769 154.544 57.4748 153.058 61.6753Z" fill="#231F20"/>
<path d="M166.655 104.873H166.555C166.486 104.864 166.42 104.839 166.365 104.8C166.31 104.761 166.267 104.71 166.242 104.651C165.572 103.215 149.92 69.2419 152.636 61.5768C154.168 57.2518 171.904 44.0975 188.079 33.233C188.162 33.1753 188.267 33.149 188.372 33.1598C188.477 33.1705 188.572 33.2173 188.639 33.2903C192.832 38.0004 196.419 41.7756 199.934 45.173C200.074 45.3136 200.074 45.5249 199.934 45.6655C192.199 52.8211 178.647 64.0966 176.693 65.7129C180.194 71.1513 183.695 76.5891 187.198 82.0263C187.288 82.1517 187.288 82.3129 187.198 82.4373L167.013 104.741C166.97 104.788 166.915 104.825 166.853 104.848C166.79 104.871 166.722 104.88 166.655 104.873ZM188.29 34.0129C173.06 44.2865 154.911 57.6467 153.425 61.7819C150.985 68.6751 164.683 99.2593 166.747 103.806L186.364 82.166L175.858 65.8195C175.815 65.7465 175.799 65.6628 175.814 65.5813C175.829 65.4997 175.874 65.4248 175.941 65.3682C176.087 65.2455 190.768 53.0592 199.117 45.4031C195.741 42.1204 192.291 38.4938 188.29 34.0129Z" fill="#231F20"/>
<path d="M201.044 98.0782C202.695 108.303 210.301 116.952 218.559 124.854C223.504 129.548 229.569 134.324 236.809 134.021C240.267 133.865 243.515 132.534 246.534 131.026C254.091 127.273 260.852 122.359 266.508 116.508C265.401 116.512 264.332 116.149 263.507 115.488C262.681 114.828 262.159 113.917 262.04 112.931C263.516 113.548 265.153 113.789 266.772 113.627C268.391 113.465 269.928 112.906 271.215 112.012C276.83 108.024 274.105 104.503 269.811 101.533C263.099 96.9053 257.759 90.8723 254.26 83.9641C248.901 73.2455 238.258 58.9272 222.495 62.1929C207.338 65.327 203.227 77.4891 201.135 89.5517C200.628 92.3738 200.598 95.248 201.044 98.0782Z" fill="white"/>
<path d="M236.13 134.406C229.019 134.406 223.11 129.729 218.256 125.108C210.503 117.724 202.346 108.754 200.631 98.1356C200.166 95.2549 200.188 92.3281 200.695 89.4532C201.613 84.2838 203.071 77.661 206.53 72.2945C208.165 69.622 210.428 67.2984 213.161 65.4836C215.895 63.6689 219.036 62.406 222.367 61.7819C229.56 60.2972 243.304 61.1748 254.617 83.7662C258.08 90.6232 263.378 96.6099 270.041 101.196C273.252 103.42 274.757 105.374 274.775 107.359C274.775 109 273.665 110.69 271.445 112.283C270.206 113.142 268.744 113.707 267.196 113.923C265.648 114.14 264.064 114.002 262.591 113.522C262.852 114.267 263.37 114.918 264.071 115.383C264.771 115.847 265.618 116.1 266.49 116.106C266.572 116.103 266.654 116.121 266.724 116.159C266.794 116.198 266.85 116.254 266.885 116.32C266.92 116.386 266.933 116.459 266.922 116.53C266.91 116.602 266.875 116.669 266.82 116.723C261.15 122.634 254.349 127.594 246.736 131.37C243.901 132.782 240.496 134.25 236.826 134.406H236.129H236.13ZM226.835 62.0774C225.396 62.0774 223.962 62.2242 222.559 62.5126C207.669 65.5983 203.649 77.3324 201.521 89.5929C201.027 92.3916 201.006 95.2407 201.457 98.0451C203.136 108.466 211.201 117.33 218.889 124.617C223.771 129.261 229.707 133.972 236.809 133.643C240.304 133.495 243.598 132.067 246.351 130.697C253.616 127.083 260.133 122.378 265.618 116.788C264.572 116.618 263.616 116.15 262.891 115.454C262.167 114.757 261.714 113.869 261.6 112.923C261.593 112.857 261.607 112.791 261.639 112.732C261.671 112.672 261.721 112.622 261.783 112.586C261.845 112.552 261.917 112.534 261.989 112.534C262.062 112.534 262.134 112.552 262.196 112.586C263.597 113.17 265.15 113.397 266.686 113.243C268.221 113.09 269.68 112.562 270.903 111.716C272.913 110.281 273.931 108.828 273.913 107.391C273.913 105.685 272.463 103.863 269.509 101.819C262.741 97.1579 257.359 91.0761 253.837 84.1109C244.763 65.9261 234.175 62.0774 226.835 62.0774Z" fill="#231F20"/>
<path d="M305.851 130.172C305.209 132.445 294.667 149.284 294.667 149.284L308.43 155.939C308.43 155.939 320.88 137.278 321.944 136.039C323.009 134.8 332.037 124.042 333.267 120.268C334.497 116.492 325.817 113.702 322.257 114.006C318.697 114.31 306.494 127.899 305.851 130.172Z" fill="white"/>
<path d="M308.411 156.317C308.343 156.317 308.276 156.3 308.218 156.268L294.456 149.613C294.406 149.589 294.363 149.556 294.328 149.517C294.293 149.477 294.268 149.431 294.254 149.382C294.232 149.337 294.22 149.288 294.22 149.239C294.22 149.19 294.232 149.141 294.254 149.096C297.924 143.293 304.888 131.862 305.393 130.082C306.072 127.669 318.413 113.924 322.137 113.67C324.844 113.464 330.487 114.932 332.753 117.386C333.167 117.785 333.462 118.271 333.61 118.799C333.757 119.327 333.753 119.88 333.597 120.406C332.285 124.509 322.302 136.195 322.211 136.31C321.165 137.517 308.842 156.004 308.714 156.169C308.679 156.213 308.634 156.249 308.582 156.274C308.529 156.3 308.471 156.314 308.411 156.317ZM295.245 149.128L308.265 155.438C309.943 152.919 320.595 136.974 321.595 135.81C323.697 133.348 331.744 123.599 332.845 120.16C332.965 119.75 332.964 119.32 332.844 118.91C332.723 118.5 332.486 118.126 332.156 117.822C330.092 115.582 324.725 114.187 322.266 114.375C318.908 114.638 306.815 128.326 306.255 130.262C305.649 132.404 296.768 146.691 295.245 149.128Z" fill="#231F20"/>
<path d="M301.897 137.45L289.602 150.86L263.086 134.965L251.791 153.773C251.791 153.773 289.345 178.99 294.667 176.577C299.988 174.165 316.109 144.409 316.109 144.409L301.897 137.451V137.45Z" fill="#231F20"/>
<path d="M293.814 177.086C286.07 177.086 255.214 156.522 251.544 154.06C251.469 154.007 251.416 153.932 251.396 153.848C251.376 153.764 251.39 153.676 251.434 153.6L262.728 134.792C262.754 134.748 262.791 134.709 262.835 134.678C262.879 134.647 262.93 134.624 262.985 134.612C263.039 134.6 263.096 134.598 263.151 134.606C263.206 134.614 263.259 134.633 263.306 134.66L289.501 150.375L301.567 137.245C301.625 137.179 301.708 137.134 301.8 137.117C301.893 137.101 301.989 137.115 302.071 137.156L316.329 144.114C316.418 144.16 316.484 144.235 316.515 144.323C316.546 144.411 316.538 144.506 316.494 144.59C315.834 145.813 300.227 174.485 294.832 176.922C294.512 177.048 294.162 177.105 293.814 177.086ZM252.305 153.666C262.912 160.765 290.336 178.136 294.511 176.258C299.364 174.049 313.898 147.733 315.614 144.566L301.998 137.91L289.914 151.089C289.854 151.161 289.764 151.209 289.665 151.223C289.565 151.237 289.464 151.216 289.382 151.163L263.224 135.481L252.305 153.666ZM313.155 104.659L313.035 137.45H330.386V104.659H313.155Z" fill="#231F20"/>
<path d="M330.386 137.844H313.036C312.982 137.844 312.929 137.835 312.88 137.816C312.83 137.798 312.785 137.77 312.748 137.736C312.71 137.702 312.68 137.661 312.661 137.616C312.641 137.571 312.631 137.524 312.632 137.476L312.742 104.651C312.745 104.554 312.789 104.463 312.867 104.395C312.944 104.328 313.047 104.29 313.155 104.29H330.385C330.609 104.29 330.789 104.451 330.789 104.651V137.476C330.79 137.524 330.781 137.571 330.761 137.616C330.741 137.661 330.712 137.702 330.674 137.736C330.637 137.77 330.592 137.798 330.542 137.816C330.493 137.835 330.44 137.844 330.386 137.844ZM313.448 137.123H329.964V105.021H313.54L313.448 137.123Z" fill="#231F20"/>
<path d="M314.916 107.556L314.825 133.323H328.606V107.556H314.916Z" fill="white"/>
<path d="M328.606 133.692H314.843C314.788 133.693 314.734 133.684 314.684 133.666C314.633 133.648 314.587 133.62 314.549 133.586C314.509 133.55 314.478 133.508 314.458 133.462C314.437 133.415 314.428 133.365 314.43 133.315L314.513 107.556C314.516 107.457 314.561 107.363 314.64 107.294C314.719 107.225 314.825 107.187 314.935 107.187H328.624C328.852 107.187 329.037 107.352 329.037 107.556V133.323C329.037 133.373 329.026 133.423 329.004 133.468C328.982 133.514 328.95 133.556 328.909 133.59C328.869 133.625 328.821 133.651 328.769 133.669C328.717 133.687 328.662 133.694 328.606 133.692ZM315.246 132.921H328.184V107.934H315.338L315.247 132.921H315.246Z" fill="#231F20"/>
<path d="M305.099 131.879C305.099 131.879 302.512 120.834 306.393 119.102C310.273 117.371 323.614 115.344 321.55 118.051C319.486 120.759 312.256 122.434 312.256 122.434C312.256 122.434 313.742 126.299 312.109 129.039" fill="white"/>
<path d="M305.099 132.248C305.004 132.249 304.911 132.22 304.837 132.166C304.763 132.112 304.713 132.036 304.695 131.952C304.585 131.493 302.08 120.603 306.209 118.765C309.559 117.28 320.366 115.368 321.944 116.977C322.111 117.161 322.198 117.393 322.188 117.63C322.177 117.867 322.071 118.092 321.889 118.264C320.054 120.727 314.393 122.285 312.779 122.697C313.118 123.772 313.889 126.848 312.476 129.261C312.422 129.348 312.332 129.412 312.225 129.439C312.118 129.467 312.004 129.456 311.906 129.408C311.81 129.36 311.738 129.28 311.706 129.185C311.674 129.09 311.683 128.988 311.733 128.9C313.265 126.34 311.87 122.639 311.852 122.598C311.829 122.551 311.818 122.501 311.818 122.45C311.818 122.399 311.829 122.349 311.852 122.302C311.88 122.257 311.918 122.216 311.964 122.184C312.01 122.152 312.062 122.128 312.118 122.114C312.191 122.114 319.219 120.473 321.174 117.887C321.311 117.707 321.348 117.576 321.284 117.51C320.293 116.492 310.274 117.838 306.549 119.48C303.603 120.792 304.787 128.842 305.484 131.838C305.496 131.886 305.498 131.935 305.488 131.984C305.478 132.032 305.458 132.078 305.428 132.12C305.398 132.161 305.36 132.197 305.314 132.224C305.269 132.252 305.218 132.271 305.164 132.281L305.099 132.248Z" fill="#231F20"/>
<path d="M209.173 110.427L186.318 75.3391L160.628 100.851L170.169 119.249C170.169 119.249 155.489 150.326 155.489 211.24C155.489 211.24 233.643 210.936 253.314 210.936L227.624 175.198C227.624 175.198 234.047 158.639 237.359 154.503L256.489 163.817L278.859 136.565L209.173 110.428V110.427Z" fill="#75ECCA"/>
<path d="M208.843 143.876C221.458 150.441 224.44 123.755 225 117.978C225.256 116.388 225.15 114.77 224.688 113.218C223.963 111.249 222.266 109.723 220.568 108.294C218.541 106.653 216.201 104.93 213.439 104.824C212.151 104.842 210.885 105.129 209.742 105.663C208.6 106.198 207.613 106.964 206.861 107.9C205.372 109.785 204.301 111.908 203.705 114.153C200.732 123.435 200.842 133.233 206.576 141.669C207.056 142.473 207.737 143.167 208.567 143.695L208.843 143.876Z" fill="#231F20"/>
<path d="M212.614 145.271C211.206 145.233 209.834 144.859 208.641 144.188L208.356 144.032C207.471 143.474 206.745 142.738 206.236 141.882C200.98 134.144 199.97 124.534 203.319 114.08C203.927 111.79 205.02 109.626 206.539 107.704C207.328 106.718 208.366 105.912 209.568 105.353C210.77 104.794 212.103 104.497 213.458 104.487C216.284 104.594 218.678 106.267 220.798 108.056C222.523 109.476 224.266 111.044 225.028 113.103C225.501 114.709 225.614 116.382 225.358 118.027C224.505 126.635 222.055 141.545 215.265 144.688C214.447 145.071 213.537 145.271 212.614 145.271V145.271ZM213.182 105.209C211.998 105.262 210.842 105.554 209.802 106.062C208.761 106.571 207.862 107.284 207.172 108.147C205.721 109.996 204.678 112.077 204.099 114.277C200.805 124.534 201.787 133.972 206.925 141.504C207.364 142.26 207.992 142.915 208.76 143.417L209.026 143.556C211.21 144.697 213.136 144.852 214.907 144.032C219.623 141.849 223.165 132.346 224.578 117.945C224.823 116.402 224.723 114.832 224.284 113.324C223.587 111.429 221.926 109.944 220.274 108.582C218.22 106.891 215.972 105.299 213.403 105.209H213.183H213.182ZM246.488 93.8356C247.653 97.618 245.745 102.436 242.882 105.234C240.974 107.08 236.79 107.573 235.946 104.569C235.419 102.591 235.34 100.539 235.714 98.5332C236.087 96.5277 236.905 94.6095 238.12 92.8918C239.955 90.192 243.47 88.6491 245.727 92.1199C246.062 92.6599 246.318 93.2365 246.488 93.8356Z" fill="#231F20"/>
<path d="M239.084 107.08C238.732 107.082 238.381 107.046 238.038 106.973C237.422 106.833 236.863 106.541 236.423 106.131C235.983 105.72 235.681 105.208 235.551 104.651C235.012 102.63 234.927 100.534 235.302 98.4843C235.677 96.4343 236.504 94.4717 237.735 92.7109C239.02 90.8645 240.836 89.7487 242.534 89.7568C243.497 89.7568 244.883 90.1597 246.039 91.948C246.403 92.5121 246.687 93.1165 246.883 93.7451C248.149 97.8481 245.965 102.771 243.213 105.48C242.681 105.983 242.041 106.383 241.331 106.658C240.621 106.933 239.856 107.077 239.083 107.08H239.084ZM242.488 90.4785C241.093 90.4785 239.543 91.4725 238.423 93.0807C237.246 94.7607 236.455 96.6344 236.098 98.5917C235.74 100.549 235.822 102.551 236.34 104.479C236.53 105.355 237.27 106.053 238.24 106.267C239.025 106.396 239.834 106.347 240.593 106.123C241.351 105.899 242.034 105.509 242.58 104.987C245.167 102.477 247.277 97.7416 246.103 93.9341C245.929 93.3598 245.673 92.8082 245.341 92.2927C244.561 91.0946 243.616 90.4794 242.525 90.4705L242.488 90.4794V90.4785Z" fill="#231F20"/>
<path d="M226.808 110.764C224.972 117.059 223.138 131.395 211.439 123.894C210.241 123.052 209.195 122.051 208.338 120.924C202.576 114.056 204.218 109.722 207.2 102.181C208.485 98.8985 209.595 95.6157 210.87 92.3339C212.146 89.0511 214.247 85.9654 215.99 82.8555C215.926 82.963 221.724 83.6757 227.523 81.3207C233.322 78.9656 238.12 76.5211 238.12 76.5211C239.69 78.6209 241.387 80.213 242.222 82.7086C242.992 85.1282 243.214 87.6605 242.873 90.1588C242.139 96.2891 239.396 102.919 236.285 108.393C233.175 113.866 226.808 110.764 226.808 110.764Z" fill="white"/>
<path d="M217.348 126.413C215.513 126.413 213.467 125.675 211.191 124.214C209.959 123.348 208.882 122.319 207.998 121.161C202.062 114.08 203.851 109.558 206.806 102.075C207.42 100.499 208.008 98.8823 208.576 97.3225C209.191 95.6408 209.824 93.909 210.503 92.2103C211.528 89.831 212.739 87.5194 214.127 85.2929C214.641 84.4225 215.155 83.5531 215.641 82.6836C215.665 82.6395 215.699 82.6002 215.741 82.568C215.782 82.5358 215.83 82.5113 215.882 82.496C215.935 82.4806 215.99 82.4747 216.044 82.4787C216.099 82.4826 216.152 82.4962 216.201 82.5188C220.005 82.9189 223.858 82.3856 227.349 80.9759C230.936 79.4993 234.458 77.901 237.909 76.1844C238.003 76.1395 238.112 76.1272 238.215 76.1498C238.319 76.1725 238.409 76.2284 238.469 76.307C238.864 76.8327 239.259 77.3243 239.653 77.8087C240.953 79.2298 241.96 80.8473 242.625 82.5851C243.408 85.0565 243.635 87.6417 243.295 90.192C242.625 95.6811 240.277 102.205 236.662 108.549C236.284 109.303 235.736 109.978 235.052 110.533C234.368 111.088 233.564 111.511 232.689 111.774C230.811 112.201 228.827 112.042 227.064 111.323C226.865 112.034 226.675 112.748 226.496 113.464C225.284 118.166 223.633 124.617 219.256 126.093C218.646 126.3 218 126.408 217.348 126.413ZM216.247 83.2737C215.807 84.0948 215.329 84.8497 214.871 85.6377C213.501 87.8355 212.305 90.1167 211.292 92.4646C210.622 94.106 209.99 95.879 209.375 97.5526C208.76 99.2271 208.219 100.737 207.595 102.32C204.631 109.821 203.007 113.948 208.677 120.71C209.51 121.807 210.525 122.784 211.687 123.607C214.567 125.461 217.027 126.069 219.027 125.396C222.981 124.058 224.532 117.847 225.743 113.308C225.991 112.356 226.211 111.462 226.441 110.699C226.458 110.644 226.489 110.594 226.531 110.552C226.572 110.509 226.623 110.475 226.681 110.453C226.739 110.43 226.802 110.419 226.865 110.42C226.928 110.422 226.99 110.435 227.046 110.461C228.743 111.241 230.695 111.454 232.551 111.061C233.316 110.827 234.018 110.454 234.614 109.965C235.209 109.476 235.685 108.882 236.011 108.22C239.579 101.952 241.91 95.5172 242.561 90.1176C242.893 87.6692 242.675 85.1861 241.919 82.8143C241.268 81.1554 240.292 79.6133 239.038 78.26C238.708 77.858 238.368 77.4398 238.048 77.0207C234.678 78.6765 231.244 80.2257 227.753 81.6654C224.148 83.1154 220.174 83.6708 216.247 83.2737Z" fill="#231F20"/>
<path d="M224.88 116.853C224.88 116.853 219.201 115.696 216.623 111.471C214.045 107.244 215.605 104.003 215.605 104.003C215.605 104.003 220.559 109.132 226.825 110.789L224.881 116.853H224.88Z" fill="#231F20"/>
<path d="M224.88 117.215H224.789C224.55 117.165 218.899 115.976 216.256 111.659C213.614 107.343 215.146 104.012 215.21 103.871C215.237 103.815 215.281 103.765 215.335 103.728C215.39 103.691 215.454 103.667 215.522 103.658C215.589 103.649 215.657 103.655 215.721 103.675C215.785 103.696 215.843 103.729 215.889 103.773C215.889 103.823 220.853 108.844 226.899 110.453C226.95 110.467 226.998 110.489 227.04 110.519C227.081 110.548 227.116 110.585 227.142 110.627C227.167 110.669 227.184 110.715 227.189 110.763C227.195 110.81 227.19 110.858 227.175 110.904L225.275 116.952C225.251 117.028 225.199 117.095 225.128 117.143C225.056 117.19 224.97 117.215 224.881 117.214L224.88 117.215ZM215.76 104.716C215.227 106.962 215.656 109.306 216.963 111.282C219.063 114.711 223.321 116.057 224.596 116.394L226.312 111.018C221.238 109.566 217.128 106.005 215.761 104.716H215.76ZM228.358 100.425C227.203 100.345 226.083 100.031 225.083 99.5056C225.037 99.4819 224.996 99.4503 224.963 99.4125C224.931 99.3748 224.907 99.3316 224.893 99.2856C224.879 99.2395 224.875 99.1914 224.882 99.144C224.888 99.0967 224.905 99.051 224.932 99.0095C224.958 98.9681 224.994 98.9317 225.036 98.9025C225.078 98.8732 225.126 98.8517 225.178 98.8392C225.229 98.8266 225.283 98.8233 225.336 98.8293C225.389 98.8353 225.44 98.8506 225.486 98.8743C226.193 99.2352 228.239 100.056 229.156 99.5217C229.753 99.1779 229.101 95.8056 227.725 92.1369C227.707 92.0913 227.699 92.0429 227.701 91.9944C227.704 91.946 227.718 91.8986 227.741 91.8549C227.765 91.8113 227.798 91.7723 227.839 91.7403C227.879 91.7083 227.927 91.6839 227.978 91.6685C228.03 91.6532 228.084 91.6472 228.138 91.6509C228.192 91.6546 228.244 91.668 228.293 91.6902C228.341 91.7124 228.383 91.743 228.418 91.7802C228.453 91.8174 228.479 91.8604 228.495 91.9068C229.322 94.098 231.074 99.2925 229.588 100.113C229.219 100.319 228.793 100.427 228.358 100.425Z" fill="#231F20"/>
<path d="M226.68 104.873C225.728 104.886 224.785 104.701 223.927 104.331C221.633 103.313 220.257 100.926 219.779 97.2329C219.769 97.1373 219.8 97.0417 219.867 96.9665C219.934 96.8913 220.031 96.8423 220.137 96.83C220.19 96.8242 220.244 96.828 220.295 96.8411C220.347 96.8541 220.395 96.8762 220.437 96.906C220.479 96.9359 220.514 96.9728 220.539 97.0148C220.565 97.0568 220.581 97.1029 220.587 97.1505C221.018 100.58 222.257 102.78 224.257 103.715C227.312 105.069 231.212 103.018 231.248 103.001C231.294 102.976 231.345 102.959 231.398 102.952C231.451 102.944 231.505 102.946 231.557 102.958C231.609 102.969 231.658 102.99 231.701 103.019C231.744 103.048 231.781 103.084 231.808 103.125C231.863 103.208 231.879 103.307 231.853 103.4C231.827 103.494 231.762 103.575 231.67 103.626C230.141 104.391 228.43 104.818 226.68 104.873ZM227.11 88.4933C227.008 88.4933 226.909 88.4585 226.835 88.396C226.76 88.3335 226.714 88.248 226.707 88.1566C226.642 87.3364 226.377 86.8358 225.899 86.6218C224.982 86.1956 223.266 86.9665 222.697 87.3032C222.607 87.3538 222.499 87.3709 222.395 87.3509C222.291 87.3309 222.2 87.2754 222.141 87.1962C222.083 87.117 222.061 87.0203 222.081 86.9269C222.1 86.8335 222.16 86.7507 222.247 86.6961C222.348 86.6388 224.697 85.2759 226.257 85.9735C226.663 86.1932 226.995 86.508 227.217 86.884C227.438 87.26 227.541 87.6829 227.514 88.1073C227.518 88.1548 227.511 88.2024 227.494 88.2474C227.477 88.2924 227.45 88.334 227.415 88.3698C227.38 88.4056 227.338 88.4348 227.29 88.4559C227.243 88.4769 227.191 88.4893 227.138 88.4924H227.11V88.4933ZM237.286 92.5631C237.185 92.5635 237.088 92.5301 237.013 92.4695C236.938 92.4088 236.892 92.3253 236.882 92.2354C236.882 92.2354 236.698 90.4302 235.552 89.7729C234.561 89.1908 233.404 90.5197 233.395 90.5367C233.363 90.5746 233.322 90.6064 233.276 90.6302C233.23 90.6541 233.179 90.6695 233.126 90.6755C233.073 90.6816 233.019 90.6782 232.968 90.6656C232.916 90.653 232.868 90.6314 232.826 90.6021C232.783 90.5737 232.747 90.538 232.719 90.497C232.692 90.456 232.674 90.4105 232.666 90.3631C232.659 90.3158 232.662 90.2676 232.675 90.2213C232.688 90.175 232.712 90.1316 232.744 90.0935C233.304 89.4371 234.698 88.4028 236.001 89.1658C237.478 90.0362 237.681 92.1038 237.689 92.1861C237.694 92.2336 237.689 92.2816 237.673 92.3272C237.657 92.3727 237.632 92.4151 237.597 92.4517C237.563 92.4884 237.521 92.5186 237.474 92.5406C237.427 92.5627 237.375 92.5761 237.322 92.5801L237.286 92.5631ZM205.016 90.5779C204.873 91.8855 205.127 93.2036 205.751 94.3925C207.053 96.5515 210.265 97.4299 212.889 96.7324C219.743 94.9182 223.037 83.2576 217.853 78.6782C213.036 74.4275 207.567 81.1407 206.439 85.104C205.916 86.9665 205.09 88.6903 205.017 90.5779H205.016Z" fill="#231F20"/>
<path d="M211.054 97.3314C209.922 97.3581 208.802 97.1163 207.808 96.6306C206.814 96.1448 205.981 95.4323 205.393 94.5654C204.725 93.3208 204.455 91.9346 204.613 90.5609C204.739 89.1873 205.047 87.8324 205.53 86.5233C205.696 86.0227 205.86 85.5222 206.007 85.0216C206.806 82.2645 209.769 77.9896 213.265 77.1273C214.126 76.9232 215.033 76.9363 215.887 77.1651C216.74 77.3939 217.506 77.8296 218.1 78.4239C220.605 80.6321 221.422 84.6285 220.238 88.8542C219.055 93.0807 216.274 96.2399 212.971 97.0601C212.349 97.2283 211.704 97.3196 211.054 97.3314ZM205.42 90.594C205.274 91.8394 205.512 93.0968 206.108 94.2296C206.8 95.196 207.829 95.9311 209.034 96.3212C210.24 96.7113 211.556 96.7347 212.778 96.3876C215.816 95.5665 218.385 92.6294 219.486 88.6822C220.586 84.7351 219.862 80.9679 217.568 78.9415C217.076 78.4347 216.436 78.061 215.719 77.8623C215.003 77.6636 214.239 77.6478 213.513 77.8168C210.357 78.6379 207.558 82.6836 206.824 85.2025C206.674 85.7135 206.515 86.2225 206.347 86.7292C205.871 87.9804 205.563 89.2777 205.429 90.594H205.42Z" fill="#231F20"/>
<path d="M243.12 97.7908C242.957 97.7912 242.797 97.7527 242.656 97.6794C242.515 97.6061 242.399 97.5005 242.319 97.3735C242.238 97.2465 242.197 97.1027 242.2 96.9568C242.202 96.811 242.248 96.6683 242.332 96.5434C242.432 96.3957 252.608 81.4282 254.352 72.0975C254.984 68.7163 253.305 65.2867 249.626 62.4221C244.598 58.5162 237.093 56.7682 231.78 58.2699C222.33 60.9455 217.302 80.4261 217.247 80.5909C217.187 80.7968 217.039 80.9736 216.836 81.0841C216.633 81.1946 216.39 81.2302 216.158 81.1835C215.926 81.1367 215.723 81.0112 215.593 80.8334C215.462 80.6556 215.413 80.4393 215.457 80.23C215.669 79.4089 220.779 59.657 231.23 56.7029C237.203 55.0203 245.259 56.8587 250.828 61.1828C255.012 64.4656 256.911 68.4047 256.168 72.3679C254.333 82.0183 244.323 96.7727 243.901 97.3968C243.82 97.5166 243.705 97.6158 243.568 97.6847C243.432 97.7537 243.278 97.7902 243.121 97.7908H243.12Z" fill="#231F20"/>
<path d="M292.868 214.014C289.579 214.004 286.312 213.531 283.188 212.61C279.465 211.43 276.021 209.637 273.032 207.326C267.94 203.641 263.453 199.242 259.113 195.017C256.361 192.317 253.516 189.527 250.543 186.95C241.231 178.875 231.983 174.575 223.018 174.181C210.962 173.639 200.273 179.803 190.529 186.539C189.612 187.196 188.621 187.877 187.648 188.567C179.767 194.154 170.83 200.482 159.82 198.997C152.315 197.987 146.488 193.359 142.928 189.657C134.166 180.542 130.083 167.501 132.111 154.855C134.258 141.234 142.745 131.633 157.343 126.315C169.426 121.917 180.831 115.762 191.869 109.812L191.96 109.772C198.796 106.079 206.053 101.352 208.008 94.2627C208.037 94.1538 208.114 94.0598 208.22 94.0012C208.327 93.9427 208.455 93.9245 208.577 93.9506C208.698 93.9768 208.803 94.0451 208.869 94.1405C208.934 94.236 208.954 94.3508 208.925 94.4597C206.888 101.845 199.456 106.694 192.455 110.469L192.373 110.518C181.308 116.484 169.867 122.655 157.719 127.078C143.442 132.272 135.148 141.652 133.047 154.979C131.083 167.386 135.047 180.147 143.617 189.083C147.076 192.686 152.718 197.183 159.948 198.152C170.564 199.587 178.959 193.638 187.07 187.893L189.96 185.859C199.851 179.023 210.705 172.77 223.055 173.328C232.23 173.738 241.68 178.112 251.158 186.326C254.149 188.927 257.003 191.726 259.765 194.434C264.077 198.668 268.536 203.043 273.582 206.685C276.482 208.932 279.824 210.677 283.436 211.831C295.832 215.409 308.209 211.888 320.311 201.36C338.267 185.703 348.387 161.971 348.066 136.171C347.919 124.124 345.406 114.711 340.377 107.384C338.35 104.421 335.79 101.122 331.624 99.4725C329.496 98.6522 324.504 98.3406 322.578 100.762C321.844 101.689 321.77 102.78 321.66 104.166C321.66 104.766 321.568 105.438 321.467 106.169C321.446 106.273 321.38 106.366 321.284 106.429C321.189 106.491 321.07 106.518 320.952 106.505C320.835 106.491 320.727 106.438 320.653 106.355C320.578 106.273 320.541 106.168 320.55 106.062C320.66 105.356 320.697 104.725 320.743 104.117C320.843 102.658 320.935 101.401 321.825 100.285C324.064 97.4702 329.551 97.7657 331.991 98.7265C336.432 100.466 339.047 103.888 341.166 106.932C346.286 114.392 348.836 123.943 348.993 136.146C349.313 162.143 339.102 186.121 320.963 201.926C311.769 209.976 302.346 214.006 292.868 214.014ZM204.172 33.1515C204.106 33.1509 204.042 33.1382 203.982 33.1142C203.922 33.0901 203.868 33.0553 203.824 33.0118C203.74 32.9338 203.692 32.8294 203.692 32.7208C203.692 32.6122 203.74 32.5078 203.824 32.4298C205.842 30.8618 207.843 30.1732 209.778 30.3693C211.421 30.5699 212.914 31.3316 213.944 32.4951C214.089 32.6796 214.044 32.9339 213.844 33.0691C213.795 33.1011 213.74 33.1241 213.681 33.1369C213.623 33.1497 213.562 33.152 213.502 33.1437C213.442 33.1353 213.385 33.1166 213.333 33.0884C213.282 33.0603 213.237 33.0233 213.201 32.9796C212.323 31.9998 211.065 31.3521 209.678 31.1654C208.008 30.9926 206.246 31.6248 204.429 33.0369C204.36 33.0992 204.269 33.1395 204.172 33.1515Z" fill="#231F20"/>
<path d="M231.505 166.008C231.442 166.02 231.376 166.02 231.313 166.008C231.215 165.961 231.14 165.882 231.106 165.787C231.072 165.692 231.08 165.589 231.129 165.499L242.708 144.738C242.761 144.655 242.848 144.594 242.95 144.567C243.052 144.539 243.162 144.548 243.258 144.591C243.353 144.634 243.426 144.708 243.462 144.798C243.498 144.888 243.494 144.987 243.451 145.074L231.881 165.802C231.847 165.865 231.793 165.918 231.726 165.954C231.66 165.99 231.583 166.009 231.505 166.008ZM209.935 170.054C196.676 170.054 181.097 166.212 180.235 165.999C180.175 165.993 180.117 165.974 180.066 165.946C180.015 165.918 179.97 165.88 179.937 165.835C179.903 165.79 179.881 165.739 179.871 165.685C179.861 165.632 179.864 165.577 179.88 165.525C179.896 165.473 179.925 165.424 179.963 165.383C180.002 165.341 180.05 165.307 180.105 165.284C180.159 165.26 180.219 165.248 180.279 165.247C180.34 165.246 180.4 165.256 180.455 165.278C180.739 165.343 208.558 172.212 221.422 167.821C221.64 167.749 221.882 167.848 221.963 168.043C221.984 168.088 221.994 168.136 221.993 168.185C221.992 168.234 221.98 168.282 221.958 168.327C221.935 168.371 221.903 168.411 221.863 168.444C221.823 168.477 221.776 168.503 221.724 168.519C217.925 169.647 213.934 170.166 209.934 170.054H209.935ZM320.403 102.361H322.403V105.02H320.403V102.361Z" fill="#231F20"/>
<path d="M322.403 105.382H320.403C320.295 105.382 320.191 105.344 320.114 105.276C320.037 105.208 319.992 105.116 319.99 105.02V102.361C319.99 102.313 320.001 102.265 320.022 102.221C320.042 102.177 320.073 102.136 320.112 102.103C320.15 102.069 320.196 102.043 320.246 102.025C320.296 102.008 320.349 101.999 320.403 102H322.403C322.626 102 322.807 102.162 322.807 102.361V105.021C322.807 105.068 322.797 105.115 322.776 105.159C322.756 105.203 322.726 105.243 322.689 105.276C322.651 105.31 322.607 105.336 322.558 105.354C322.509 105.372 322.456 105.382 322.403 105.382ZM320.807 104.651H322V102.723H320.807V104.651Z" fill="#231F20"/>
<path d="M213.026 94.6146L212.366 94.0406C214.403 92.2285 215.733 89.8761 216.158 87.3331C216.583 84.7901 216.08 82.1922 214.724 79.9256L215.513 79.5074C216.968 81.9302 217.512 84.7084 217.064 87.4298C216.616 90.1513 215.2 92.6708 213.026 94.6146ZM243.304 105.382L242.451 105.077C245.131 98.8985 244.451 94.3361 244.451 94.2949L245.369 94.1803C245.387 94.3523 246.075 98.98 243.304 105.382ZM169.236 71.4394L175.883 65.3619L176.538 65.935L169.892 72.0133L169.236 71.4394ZM289.407 151.243L289.81 150.506L296.872 153.598L296.469 154.336L289.407 151.243Z" fill="white"/>
<path d="M53.7972 94.0962C53.4112 94.0147 52.9982 93.9574 52.6222 93.8419C52.0315 93.7111 51.489 93.4448 51.0482 93.0692C50.6073 92.6936 50.2834 92.2217 50.1082 91.6999C49.9822 91.246 49.966 90.7732 50.0609 90.3133C50.1558 89.8534 50.3594 89.4169 50.6582 89.0333C51.1591 88.3539 51.8099 87.7734 52.5705 87.3275C53.3311 86.8815 54.1855 86.5795 55.0812 86.44C56.2652 86.2018 56.7972 86.26 58.6782 86.6702V66.9084L80.4052 63.0194V87.1859C80.4324 87.8063 80.302 88.4241 80.0238 88.9927C79.7456 89.5614 79.3269 90.066 78.7992 90.4687C77.9369 91.2164 76.8683 91.7456 75.7027 92.0022C74.5371 92.2588 73.3163 92.2336 72.1652 91.9292C71.5695 91.8109 71.0209 91.5499 70.5781 91.174C70.1353 90.7982 69.8149 90.3216 69.6512 89.7953C69.518 89.3437 69.4975 88.8714 69.5911 88.4119C69.6848 87.9524 69.8904 87.517 70.1932 87.1367C70.6936 86.4537 71.3463 85.8707 72.1104 85.4245C72.8745 84.9782 73.7334 84.6782 74.6332 84.5435C75.8198 84.3113 77.0561 84.3912 78.1932 84.7736V71.1851L76.6522 71.4555C71.4939 72.3838 66.3342 73.3058 61.1732 74.2215C60.8892 74.2708 60.8432 74.3693 60.8432 74.5985V89.0091C60.8697 89.7455 60.6895 90.4762 60.3192 91.1342C59.9488 91.7921 59.4001 92.3564 58.7232 92.7754C57.7104 93.4602 56.5152 93.8958 55.2562 94.0389C55.1905 94.0542 55.1261 94.0734 55.0632 94.0962H53.7972ZM397.605 150.732V150.264C397.548 149.833 397.368 149.424 397.082 149.074C396.617 148.468 396.014 147.956 395.312 147.573C394.61 147.17 393.828 146.891 393.009 146.752C392.488 146.662 391.952 146.662 391.431 146.752H391.293C391.288 146.697 391.288 146.642 391.293 146.588C391.385 146.267 391.476 145.956 391.577 145.652L393.412 139.908C394.082 137.823 394.762 135.739 395.431 133.655V133.532L394.789 133.483C393.031 133.399 391.276 133.679 389.659 134.303C388.149 134.861 386.888 135.851 386.072 137.117C385.842 137.479 385.669 137.864 385.476 138.25C385.347 138.496 385.246 138.759 385.127 139.013C385.122 139.049 385.122 139.085 385.127 139.121L385.357 138.997C386.085 138.569 386.849 138.191 387.641 137.864C388.864 137.373 390.204 137.159 391.541 137.241C392.117 137.291 392.684 137.405 393.229 137.578C393.225 137.618 393.225 137.66 393.229 137.7C392.116 141.158 391.012 144.613 389.917 148.064C389.903 148.127 389.903 148.191 389.917 148.253C389.995 148.864 390.284 149.437 390.742 149.895C391.323 150.529 392.057 151.037 392.889 151.38L393.605 151.659L394.265 151.831H394.449C394.994 151.93 395.556 151.93 396.101 151.831C396.56 151.773 396.98 151.569 397.284 151.257C397.384 151.132 397.475 151.004 397.56 150.872L397.605 150.732ZM71.1352 158.805C71.1352 158.608 71.1352 158.402 71.2372 158.205C71.3972 157.664 71.7142 157.169 72.1542 156.77C72.8948 156.079 73.7886 155.534 74.7782 155.17C75.769 154.78 76.8345 154.566 77.9162 154.538C78.6063 154.519 79.2942 154.616 79.9442 154.825L80.1182 154.882C80.1232 154.812 80.1232 154.74 80.1182 154.669C80.1182 154.251 80.0262 153.849 79.9712 153.422C79.6232 150.834 79.2712 148.255 78.9162 145.683C78.5312 142.877 78.1362 140.079 77.7512 137.28V137.116C78.0352 137.116 78.3202 137.116 78.5862 137.174C80.8672 137.377 83.0652 138.049 85.0092 139.135C86.8153 140.129 88.205 141.629 88.9632 143.403C89.1632 143.913 89.3322 144.434 89.4682 144.961C89.5782 145.306 89.6512 145.659 89.7432 146.012C89.7573 146.058 89.7573 146.106 89.7432 146.152L89.4772 145.946C88.637 145.263 87.7412 144.638 86.7972 144.075C85.3443 143.221 83.6762 142.704 81.9442 142.573C81.1924 142.529 80.4375 142.568 79.6962 142.688C79.7012 142.74 79.7012 142.793 79.6962 142.845C80.3082 147.483 80.9352 152.133 81.5772 156.795C81.5954 156.873 81.5954 156.954 81.5772 157.032C81.3428 157.816 80.839 158.514 80.1372 159.026C79.2475 159.738 78.1857 160.255 77.0352 160.536C76.7152 160.627 76.3842 160.693 76.0632 160.766L75.1452 160.865H75.0002C74.2777 160.906 73.5533 160.817 72.8702 160.602C72.2983 160.449 71.8091 160.113 71.4952 159.659C71.3884 159.482 71.2962 159.298 71.2192 159.109L71.1372 158.804L71.1352 158.805ZM290.832 86.0227C290.951 85.8096 291.052 85.5884 291.189 85.3914C291.617 84.8337 292.199 84.3843 292.878 84.0868C294.02 83.5676 295.27 83.2657 296.548 83.2003C297.836 83.1089 299.132 83.2396 300.365 83.5853C301.156 83.8037 301.891 84.158 302.53 84.6285L302.704 84.7512C302.749 84.6749 302.785 84.5951 302.814 84.513C302.952 84.0295 303.08 83.545 303.2 83.0525L305.402 73.944C306.191 70.6612 306.977 67.3624 307.76 64.0474L307.806 63.8504C308.126 63.9731 308.43 64.0796 308.723 64.2032C311.2 65.2343 313.379 66.7616 315.091 68.667C316.702 70.423 317.618 72.6074 317.696 74.8788C317.696 75.5235 317.66 76.1674 317.586 76.8076C317.586 77.2428 317.486 77.6279 317.43 78.0962C317.424 78.1485 317.406 78.199 317.375 78.2439L317.155 77.9234C316.509 76.8598 315.773 75.842 314.953 74.8788C313.689 73.3992 312.029 72.2281 310.127 71.4734C309.299 71.1594 308.43 70.9415 307.54 70.8251H307.475C307.465 70.889 307.45 70.9522 307.429 71.014L303.466 87.3776C303.444 87.4734 303.404 87.565 303.346 87.648C302.738 88.4491 301.866 89.0602 300.851 89.3959C299.533 89.8813 298.108 90.0917 296.685 90.0111C296.282 90.0111 295.887 89.9618 295.483 89.9296L294.428 89.7326L294.254 89.6663C293.422 89.4599 292.645 89.1054 291.969 88.624C291.395 88.2441 290.989 87.6949 290.822 87.0731C290.787 86.8364 290.765 86.5982 290.758 86.3594L290.832 86.0227Z" fill="#CD7DF3"/>
<path d="M38.092 45.4891C33.367 45.4891 33.358 52.0537 38.092 52.0537C42.827 52.0537 42.827 45.49 38.092 45.49V45.4891ZM395.092 52.6527C390.367 52.6527 390.358 59.2173 395.092 59.2173C399.827 59.2173 399.827 52.6536 395.092 52.6536V52.6527ZM334.712 37.5348C334.624 37.2637 334.464 37.0159 334.245 36.813L333.869 36.5587C333.591 36.411 333.274 36.3316 332.951 36.3286H332.437C332.191 36.3188 331.947 36.3699 331.731 36.4763C331.501 36.539 331.296 36.6554 331.135 36.813C330.963 36.9574 330.833 37.1377 330.758 37.3378C330.643 37.5321 330.589 37.7506 330.602 37.97L330.667 38.4132C330.753 38.6854 330.914 38.9326 331.135 39.1349L331.511 39.3902C331.79 39.5343 332.106 39.6104 332.428 39.6113H332.942C333.187 39.6239 333.432 39.5755 333.649 39.4716C333.875 39.4045 334.079 39.289 334.245 39.1349C334.568 38.8143 334.757 38.4026 334.777 37.9709C334.759 37.8303 334.731 37.6825 334.713 37.5348H334.712ZM115.562 29.8625C112.607 29.8625 112.598 33.9655 115.562 33.9655C118.525 33.9655 118.516 29.8625 115.562 29.8625ZM379.895 69.7013C376.94 69.7013 376.94 73.8052 379.895 73.8052C382.849 73.8052 382.849 69.7022 379.895 69.7022V69.7013Z" fill="#698DFF"/>
</g>
</svg>
